<svg xmlns="http://www.w3.org/2000/svg" viewBox="0 0 500 500"><g id="freepik--background-complete--inject-2"><path d="M83.67,297.54l-13.76.27-7,.12c-2.33,0-4.68,0-7,.05h-.45v-.44l0-11.73v-.5h.51l13.87.07c4.62,0,9.24.11,13.87.16h.27v.27c0,2-.08,4-.13,5.92Zm0,0-.14-5.92c0-2-.12-3.89-.13-5.81l.27.28c-4.63.05-9.25.15-13.87.16l-13.87.06.5-.5-.06,11.73-.44-.45c2.28,0,4.56,0,6.86.06l6.89.11Z" style="fill:#ebebeb"></path><path d="M68.19,312.32l-13.75.28-7,.11c-2.33.05-4.67,0-7,.05H40v-.45L40,300.59v-.5h.5l13.87.06c4.63,0,9.25.11,13.87.16h.28v.27c0,2-.09,4-.13,5.93Zm0,0-.14-5.92c0-1.95-.11-3.89-.13-5.81l.27.28c-4.62.05-9.24.16-13.87.16l-13.87.06.5-.5-.05,11.73-.45-.45c2.29,0,4.57,0,6.86.06l6.9.11Z" style="fill:#ebebeb"></path><path d="M291.05,43.09l-13.76.28-7,.12c-2.33,0-4.68,0-7,0h-.45v-.45l-.05-11.72v-.5h.51l13.87.07c4.62,0,9.24.11,13.87.16h.27v.27c0,2-.08,4-.13,5.92Zm0,0-.14-5.92c-.05-2-.12-3.88-.13-5.8l.27.27c-4.63.06-9.25.16-13.87.17l-13.87.06.5-.5-.06,11.72-.44-.44c2.28,0,4.56,0,6.86.05l6.89.12Z" style="fill:#ebebeb"></path><path d="M275.57,57.88l-13.75.28-7,.11c-2.33,0-4.67,0-7,0h-.44v-.45l0-11.73v-.5h.5l13.87.07c4.63,0,9.25.11,13.87.16h.28v.27c0,2-.09,4-.14,5.92Zm0,0L275.43,52c0-2-.11-3.89-.13-5.81l.27.28c-4.62,0-9.24.16-13.87.16l-13.87.06.5-.5-.05,11.73-.45-.45c2.29,0,4.57,0,6.86.06l6.9.11Z" style="fill:#ebebeb"></path><path d="M467.92,362.29l-13.75.28-7,.11c-2.33.05-4.67,0-7,.05h-.44v-.45l-.06-11.72v-.51h.5l13.87.06c4.63,0,9.25.11,13.87.16h.28v.27c0,2-.09,4-.13,5.92Zm0,0-.14-5.92c0-1.95-.11-3.88-.13-5.8l.27.27c-4.62.05-9.24.16-13.87.16l-13.87.06.5-.49-.05,11.72-.45-.45c2.29,0,4.57,0,6.86.06l6.9.11Z" style="fill:#ebebeb"></path><path d="M452.45,377.07l-13.76.28-7,.11c-2.34.05-4.68,0-7,.06h-.45v-.45l-.05-11.72v-.5h.51l13.87.06c4.62,0,9.24.11,13.87.16h.27v.27c0,2-.09,4-.13,5.92Zm0,0-.14-5.92c-.05-1.95-.12-3.88-.14-5.8l.28.27c-4.63.05-9.25.16-13.87.16l-13.87.07.49-.5-.05,11.72-.44-.45c2.28,0,4.56,0,6.86.06l6.89.11Z" style="fill:#ebebeb"></path><path d="M380.63,280.48l-13.75.28-7,.11c-2.33.05-4.67,0-7,.05h-.44v-.45l-.06-11.73v-.5h.5l13.87.07c4.63,0,9.25.11,13.87.16h.28v.27c0,2-.09,4-.13,5.92Zm0,0-.14-5.92c0-1.95-.11-3.89-.13-5.81l.27.28c-4.62.05-9.24.16-13.87.16l-13.87.06.5-.5-.05,11.73-.45-.45c2.29,0,4.57,0,6.86.06l6.9.11Z" style="fill:#ebebeb"></path><path d="M429.35,92.31l-13.76.28-7,.11c-2.33,0-4.67,0-7,.06h-.44v-.45l-.05-11.72v-.5h.5l13.88.06c4.62,0,9.24.12,13.87.17h.27v.27c0,2-.09,4-.13,5.92Zm0,0-.15-5.92c0-2-.11-3.88-.13-5.8l.28.27c-4.63,0-9.25.16-13.87.17l-13.88.06.5-.5-.05,11.72-.45-.44c2.29,0,4.57,0,6.87,0l6.89.11Z" style="fill:#ebebeb"></path><path d="M444.82,107.09l-13.75.28-7,.12c-2.33,0-4.67,0-7,.05h-.44v-.45l-.05-11.72v-.5h.5l13.87.07c4.62,0,9.25.11,13.87.16h.28v.27c0,2-.09,4-.14,5.92Zm0,0-.14-5.92c0-2-.11-3.88-.13-5.8l.27.27c-4.62.06-9.25.16-13.87.17l-13.87.06.5-.5-.05,11.72-.45-.44c2.29,0,4.57,0,6.86,0l6.9.12Z" style="fill:#ebebeb"></path><path d="M421.43,234.22l13.76-.27,7-.12c2.34,0,4.68,0,7-.05h.45v.45l.05,11.73v.5h-.51l-13.87-.07c-4.62,0-9.24-.11-13.87-.16h-.27V246c0-2,.09-4,.13-5.92Zm0,0,.14,5.92c.05,2,.12,3.89.14,5.81l-.28-.28c4.63,0,9.25-.15,13.87-.16l13.87-.06-.49.5.05-11.73.44.45c-2.28,0-4.56,0-6.86-.06l-6.89-.11Z" style="fill:#ebebeb"></path><path d="M406,219.44l13.75-.28,7-.11c2.33-.05,4.67,0,7-.05h.44v.45l.06,11.72v.51h-.5l-13.87-.06c-4.63,0-9.25-.11-13.87-.16h-.28v-.27c0-2,.09-4,.13-5.92Zm0,0,.14,5.92c0,1.95.11,3.88.13,5.8l-.27-.27c4.62,0,9.24-.16,13.87-.16l13.87-.06-.5.49.05-11.72.45.45c-2.29,0-4.57,0-6.86-.06l-6.9-.11Z" style="fill:#ebebeb"></path><path d="M112.57,69.6l-13.75.28-7,.11c-2.33.05-4.67,0-7,.06h-.44V69.6l-.06-11.72v-.5h.5l13.87.06c4.63,0,9.25.11,13.87.16h.28v.27c0,2-.09,4-.14,5.92Zm0,0-.14-5.92c0-2-.11-3.88-.13-5.8l.27.27c-4.62.05-9.24.16-13.87.16l-13.87.07.5-.5,0,11.72-.45-.45c2.29,0,4.57,0,6.86.06l6.9.11Z" style="fill:#ebebeb"></path><path d="M82.29,162.27l-13.76.28-7,.11c-2.33.05-4.67,0-7,.06H54.1v-.45L54,150.55v-.5h.5l13.87.06c4.63,0,9.25.12,13.88.17h.27v.27c0,2-.09,4-.13,5.92Zm0,0-.15-5.92c0-1.95-.11-3.88-.13-5.8l.28.27c-4.63.05-9.25.16-13.88.17l-13.87.06.5-.5,0,11.72-.45-.44c2.29,0,4.57,0,6.86,0l6.9.11Z" style="fill:#ebebeb"></path><rect x="310.18" y="110.56" width="147.04" height="6.87" style="fill:#ebebeb"></rect><polygon points="333.44 144.47 327.21 144.47 324.71 117.43 333.44 117.43 333.44 144.47" style="fill:#ebebeb"></polygon><polygon points="433.94 144.47 440.18 144.47 442.68 117.43 433.94 117.43 433.94 144.47" style="fill:#ebebeb"></polygon><polygon points="324.71 117.43 333.44 117.43 333.44 126.75 325.57 126.75 324.71 117.43" style="fill:#dbdbdb"></polygon><polygon points="442.68 117.43 441.82 126.75 433.95 126.75 433.95 117.43 442.68 117.43" style="fill:#dbdbdb"></polygon><path d="M445.82,69.34c-7.1,9.61-14.5,20.77-16.31,32.83,0,.19.28.25.32.07A70.28,70.28,0,0,1,433,92.58c4.67-1.29,9.25-2.34,11.7-7s2.18-11,1.71-16.17C446.34,69.16,446,69.15,445.82,69.34Z" style="fill:#ebebeb"></path><path d="M433,92.49a79.24,79.24,0,0,1,12.49-20.23s.09,0,.06,0a85.75,85.75,0,0,0-8.53,13.41c2.35-2.39,4.93-4.53,7.15-7.06a.05.05,0,0,1,.08.07c-2.22,2.66-4.63,5.54-7.51,7.5-.78,1.43-1.55,2.86-2.34,4.29a6.54,6.54,0,0,1,.59-.3s.06,0,0,0c-.22.11-.44.23-.67.32-.37.68-.74,1.36-1.12,2A.13.13,0,0,1,433,92.49Z" style="fill:#a6a6a6"></path><path d="M435.41,90a41.36,41.36,0,0,0,5.45-3.64c.05,0,.12,0,.07.07a29.2,29.2,0,0,1-5.44,3.71C435.4,90.17,435.32,90,435.41,90Z" style="fill:#a6a6a6"></path><path d="M428.74,102.06a.13.13,0,0,0,.26,0c0-4,0-8,.06-12,1-2,3.2-3.19,4.72-4.83a20.9,20.9,0,0,0,2.83-4,28.29,28.29,0,0,0,3.29-10.95c.42-4.25-1.19-18.27-3-17.78-.93.25-3.94,7.19-4.74,9.49a66.4,66.4,0,0,0-2.82,11.63A124.46,124.46,0,0,0,428.74,102.06Z" style="fill:#ebebeb"></path><path d="M428.71,84.93h0a88.91,88.91,0,0,1,2.41-15c1.14-5.25,2.47-10.19,5.17-14.88a.08.08,0,0,1,.14.08,55.32,55.32,0,0,0-4.16,11.42c.18-.28.4-.55.59-.82.07-.1.25,0,.17.1a7.17,7.17,0,0,1-.84,1.2h0c-.93,3.76-1.59,7.59-2.17,11.42a1.66,1.66,0,0,0,.13-.14,0,0,0,0,1,.06,0c-.07.13-.15.25-.23.38-.29,1.94-.55,3.88-.82,5.81a27.32,27.32,0,0,0,8.08-10.74,0,0,0,0,1,0,0A22.39,22.39,0,0,1,429.08,85l-.21,1.55c0,.11-.19.08-.19,0,0-.45,0-.91,0-1.37C428.67,85.05,428.65,85,428.71,84.93Z" style="fill:#a6a6a6"></path><path d="M430.34,77.65a81.13,81.13,0,0,0,7.05-12.14c0-.05.11,0,.09,0a39.31,39.31,0,0,1-7,12.21C430.41,77.82,430.29,77.73,430.34,77.65Z" style="fill:#a6a6a6"></path><path d="M433.85,64.53c1.1-1.94,2.26-3.82,3.29-5.8,0-.06.1,0,.08.05a30.19,30.19,0,0,1-3.2,5.85A.1.1,0,0,1,433.85,64.53Z" style="fill:#a6a6a6"></path><path d="M433.43,65.37s0,0,0,0A0,0,0,1,1,433.43,65.37Z" style="fill:#a6a6a6"></path><path d="M426.79,91.89a40.25,40.25,0,0,1-.92,7.82l.12.86a37.43,37.43,0,0,0,1.4-8.72.29.29,0,0,0,0-.27h0a57.21,57.21,0,0,0-.88-11.82c-1.23-7.3-3.91-14.3-9-19.77a.37.37,0,0,0-.57.11c-2.05,5.22-1.33,11.46.42,16.67a30.6,30.6,0,0,0,4,7.91C423.15,87.13,425.38,89.21,426.79,91.89Z" style="fill:#ebebeb"></path><path d="M418.12,62.42c4.82,7.83,8.18,17.11,8.59,26.36,0,.17-.27.21-.29,0-.12-.83-.24-1.65-.38-2.47h0A31.66,31.66,0,0,1,420.56,80s0-.1.07-.06A66.36,66.36,0,0,0,426,85.76q-.52-3.08-1.24-6l-.38-.45c-.09-.1.05-.24.14-.14l.12.13a69.59,69.59,0,0,0-2.53-8,24,24,0,0,1-3.49-4.5s0-.07.06,0c.72,1,1.42,2,2.23,3,.33.37.68.72,1,1.08a62,62,0,0,0-3.95-8.23A.11.11,0,0,1,418.12,62.42Z" style="fill:#a6a6a6"></path><path d="M419.09,72.08c1.56,1.88,3.34,3.67,4.79,5.61,0,.06-.05.11-.1.07A29.11,29.11,0,0,1,419,72.13C419,72.07,419.05,72,419.09,72.08Z" style="fill:#a6a6a6"></path><path d="M424.1,78.83l.06.07a0,0,0,1,1-.07.07l-.06-.06A.05.05,0,0,1,424.1,78.83Z" style="fill:#a6a6a6"></path><path d="M409.82,75.49a23.94,23.94,0,0,0,5.09,12A12.69,12.69,0,0,0,419,90.66c1.79.88,3.66,1.9,5.51,2.63a35.54,35.54,0,0,1,1.95,6.93l.18-.62c-1.18-10.2-7.78-18.91-16.23-24.51A.4.4,0,0,0,409.82,75.49Z" style="fill:#ebebeb"></path><path d="M412.73,78.51a.08.08,0,0,1,.09-.12,34.59,34.59,0,0,1,10.75,13.26.12.12,0,0,1-.21.12c-.39-.68-.79-1.35-1.19-2h0a11.61,11.61,0,0,1-5.18-3s0-.1,0-.06a11.78,11.78,0,0,0,2.44,1.71c.79.4,1.63.65,2.45,1-.71-1.13-1.46-2.22-2.23-3.27a22.31,22.31,0,0,1-5.79-3.26c-.06,0,0-.13.05-.09a56.83,56.83,0,0,0,5.38,2.87,49.43,49.43,0,0,0-3.8-4.43c-.65-.34-1.32-.69-1.95-1.06-.05,0,0-.12,0-.1a7.46,7.46,0,0,1,1.5.74C414.36,80,413.57,79.25,412.73,78.51Z" style="fill:#a6a6a6"></path><path d="M412.91,82a2.44,2.44,0,0,1,.33.23,0,0,0,0,1,0,0,1.86,1.86,0,0,1-.34-.19C412.8,82.08,412.85,82,412.91,82Z" style="fill:#a6a6a6"></path><polygon points="437.05 110.56 419.67 110.56 420.52 99.16 420.85 95.45 435.71 95.45 436.04 99.16 437.05 110.56" style="fill:#dbdbdb"></polygon><polygon points="436.04 99.16 420.52 99.16 420.85 95.45 435.71 95.45 436.04 99.16" style="fill:#c7c7c7"></polygon><rect x="419.67" y="92.4" width="17.23" height="3.81" style="fill:#dbdbdb"></rect><rect x="346.25" y="87.12" width="37.41" height="9.42" transform="translate(456.78 -273.12) rotate(90)" style="fill:#c7c7c7"></rect><rect x="362.89" y="68.47" width="4.11" height="9.42" transform="translate(438.13 -291.77) rotate(90)" style="fill:#dbdbdb"></rect><rect x="364.19" y="76.55" width="1.53" height="9.42" transform="translate(446.21 -283.69) rotate(90)" style="fill:#dbdbdb"></rect><rect x="362.89" y="98.86" width="4.11" height="9.42" transform="translate(468.52 -261.38) rotate(90)" style="fill:#dbdbdb"></rect><rect x="348.15" y="81.39" width="50.64" height="7.64" transform="translate(458.68 -288.27) rotate(90)" style="fill:#ebebeb"></rect><rect x="363.77" y="72.09" width="19.48" height="4.59" transform="translate(447.89 -299.12) rotate(90)" style="fill:#a6a6a6"></rect><rect x="378.98" y="102.89" width="37.02" height="7.64" transform="translate(794.98 213.42) rotate(-180)" style="fill:#c7c7c7"></rect><rect x="387.67" y="104.39" width="14.24" height="4.59" transform="translate(789.58 213.37) rotate(-180)" style="fill:#dbdbdb"></rect><rect x="331.52" y="81.82" width="42.95" height="14.49" transform="translate(442.06 -263.93) rotate(90)" style="fill:#a6a6a6"></rect><rect x="350.99" y="96.74" width="4" height="14.49" transform="translate(456.98 -249.01) rotate(90)" style="fill:#c7c7c7"></rect><rect x="352.22" y="91.33" width="1.55" height="14.49" transform="translate(451.57 -254.42) rotate(90)" style="fill:#c7c7c7"></rect><rect x="370.4" y="80.06" width="36.15" height="8.96" transform="translate(312.91 -305.78) rotate(66.77)" style="fill:#a6a6a6"></rect><rect x="391.75" y="91.6" width="3.37" height="8.96" transform="translate(326.54 -303.35) rotate(66.77)" style="fill:#c7c7c7"></rect><rect x="383.27" y="71.84" width="3.37" height="8.96" transform="translate(303.23 -307.52) rotate(66.77)" style="fill:#c7c7c7"></rect><rect x="386.13" y="76.11" width="1.31" height="8.96" transform="translate(308.27 -306.62) rotate(66.77)" style="fill:#c7c7c7"></rect><rect x="319.53" y="89.67" width="32.9" height="8.16" transform="translate(545.33 -185.25) rotate(111.29)" style="fill:#c7c7c7"></rect><rect x="330.29" y="100.32" width="3.07" height="8.16" transform="translate(549.61 -166.86) rotate(111.3)" style="fill:#a6a6a6"></rect><rect x="337.4" y="82.09" width="3.07" height="8.16" transform="translate(542.3 -198.33) rotate(111.29)" style="fill:#a6a6a6"></rect><rect x="336.8" y="86.03" width="1.19" height="8.16" transform="translate(543.89 -191.53) rotate(111.29)" style="fill:#a6a6a6"></rect><circle cx="91.12" cy="184.61" r="24.71" transform="translate(-87.91 82.95) rotate(-34.14)" style="fill:#ebebeb"></circle><path d="M104.1,184.26c-1.61,8.25-9,14.9-9,14.9s-9.75-2-15.33-8.24c-4.66-5.24-4.55-12.31-.2-15,6.22-3.91,11.19,7.43,11.19,7.43s-1.49-12.29,5.87-12.1C101.75,171.36,105.44,177.39,104.1,184.26Z" style="fill:#fff"></path><circle cx="419.04" cy="159.73" r="14.55" transform="translate(161.54 526.88) rotate(-75.82)" style="fill:#ebebeb"></circle><path d="M425.14,164.34c-3.77,3.2-9.62,3.54-9.62,3.54s-3.76-4.49-4-9.43c-.22-4.12,2.43-7.33,5.43-7,4.3.49,2.42,7.53,2.42,7.53s3.83-6.2,7.14-3.4C428.81,157.54,428.29,161.67,425.14,164.34Z" style="fill:#fff"></path><path d="M163.11,105.94A15.47,15.47,0,1,1,162,87.79,15.42,15.42,0,0,1,163.11,105.94Z" style="fill:#ebebeb"></path><path d="M153.53,94a4.71,4.71,0,1,1-6.29-2.19A4.71,4.71,0,0,1,153.53,94Z" style="fill:#fff"></path><path d="M162.26,104.19l.85,1.75A15.45,15.45,0,0,1,148.46,113l-.84-1.74a8.13,8.13,0,1,1,14.64-7.08Z" style="fill:#fff"></path><polygon points="393.48 303.37 427.04 303.37 446.25 207.62 415.52 193.5 393.48 303.37" style="fill:#dbdbdb"></polygon><polygon points="297.43 303.37 393.48 303.37 415.52 193.5 319.47 193.5 297.43 303.37" style="fill:#ebebeb"></polygon><rect x="410.71" y="252" width="51.43" height="105.53" transform="translate(872.85 609.53) rotate(180)" style="fill:#dbdbdb"></rect><polygon points="272.74 357.53 286.79 357.53 307.73 252 272.74 252 272.74 357.53" style="fill:#dbdbdb"></polygon><rect x="382.45" y="252" width="28.26" height="105.53" transform="translate(793.16 609.53) rotate(180)" style="fill:#ebebeb"></rect><rect x="244.48" y="252" width="28.26" height="105.53" transform="translate(517.23 609.53) rotate(180)" style="fill:#ebebeb"></rect><rect x="272.74" y="303.37" width="109.71" height="54.15" transform="translate(655.19 660.9) rotate(180)" style="fill:#ebebeb"></rect><rect x="272.74" y="279.96" width="109.71" height="23.63" transform="translate(655.19 583.56) rotate(180)" style="fill:#ebebeb"></rect><path d="M403.78,252l-10.66-.19-10.67-.14h-.32V252L382,264.35,382,276.7c0,8.23-.06,16.46,0,24.7s0,16.46.14,24.7.18,16.46.36,24.7q.26-12.36.36-24.7c.1-8.24.11-16.47.14-24.7s0-16.47,0-24.7l-.05-12.35L382.77,252l-.32.32,10.67-.13Z" style="fill:#dbdbdb"></path><path d="M272.74,252c-.22,8.26-.32,16.53-.41,24.79l-.12,24.79.12,24.79.15,12.4.26,12.39.26-12.39.15-12.4.12-24.79-.12-24.79C273.07,268.53,273,260.26,272.74,252Z" style="fill:#dbdbdb"></path><path d="M272.74,303.37c9.14.22,18.29.33,27.43.41l27.43.13,27.42-.13,13.72-.15,13.71-.26-13.71-.26L355,303l-27.42-.12-27.43.13C291,303.05,281.88,303.15,272.74,303.37Z" style="fill:#dbdbdb"></path><path d="M272.74,280c9.14.22,18.29.33,27.43.41l27.43.12,27.42-.12,13.72-.15,13.71-.26-13.71-.26L355,279.55l-27.42-.12-27.43.12C291,279.64,281.88,279.74,272.74,280Z" style="fill:#dbdbdb"></path><polygon points="442.6 357.53 443.29 366.08 444.92 385.83 452.36 385.83 453.99 366.08 454.68 357.53 442.6 357.53" style="fill:#c7c7c7"></polygon><polygon points="454.68 357.53 442.6 357.53 443.29 366.08 453.99 366.08 454.68 357.53" style="fill:#a6a6a6"></polygon><polygon points="390.54 357.53 391.23 366.08 392.86 385.83 400.3 385.83 401.93 366.08 402.62 357.53 390.54 357.53" style="fill:#c7c7c7"></polygon><polygon points="402.62 357.53 390.54 357.53 391.23 366.08 401.93 366.08 402.62 357.53" style="fill:#a6a6a6"></polygon><polygon points="304.19 357.53 304.88 366.08 306.51 385.83 313.95 385.83 315.58 366.08 316.27 357.53 304.19 357.53" style="fill:#c7c7c7"></polygon><polygon points="316.27 357.53 304.19 357.53 304.88 366.08 315.58 366.08 316.27 357.53" style="fill:#a6a6a6"></polygon><polygon points="252.12 357.53 252.81 366.08 254.44 385.83 261.88 385.83 263.51 366.08 264.2 357.53 252.12 357.53" style="fill:#c7c7c7"></polygon><polygon points="252.12 357.53 252.81 366.08 263.51 366.08 264.2 357.53 252.12 357.53" style="fill:#a6a6a6"></polygon></g><g id="freepik--Shadow--inject-2"><ellipse cx="250" cy="453.62" rx="96.68" ry="10.14" style="fill:#ebebeb"></ellipse></g><g id="freepik--Plant--inject-2"><path d="M77.83,328.37s8.53-30.61,15.34-41,19.51-21.81,19.51-21.81S112.38,312.74,77.83,328.37Z" style="fill:#CFD8DC"></path><path d="M78.44,327.84A145.16,145.16,0,0,0,86.22,313a103.51,103.51,0,0,1,4.23-16.09.08.08,0,1,1,.15.05c-1.13,4.84-2.44,9.63-3.64,14.45,3.44-7.45,6.71-15,10.81-22a47,47,0,0,1,4-9.79c0-.09.19,0,.15.05A62.13,62.13,0,0,0,99.22,287,72.93,72.93,0,0,1,105.7,278c.15-.18.44,0,.3.21-5.48,7-9.27,14.95-12.87,23a123.84,123.84,0,0,0,10.7-13.37c0-.05.1,0,.07.05a110,110,0,0,1-11.46,14.85c-2.62,5.91-5.2,11.84-8.33,17.45,6.25-5.28,11.06-12.12,15.82-18.72a.14.14,0,0,1,.24.16c-4.76,7.24-9.69,14.06-16.55,19.42a76.73,76.73,0,0,1-4.57,7.16A.37.37,0,0,1,78.44,327.84Z" style="fill:#263238"></path><path d="M75.19,331.12s15.33-28.22,10.87-55.59-9.22-37.1-9.22-37.1S52.75,281,75.19,331.12Z" style="fill:#CFD8DC"></path><path d="M68.9,286.75a134.09,134.09,0,0,0,5.91,22.79c0-10,.24-20.08.51-30.12a77.94,77.94,0,0,1-2.9-18.71c0-.18.27-.17.29,0a106.35,106.35,0,0,0,2.68,16.09q.36-12.42.81-24.85a.11.11,0,0,1,.22,0c0,12.94,0,25.88-.09,38.82a103.25,103.25,0,0,0,4.42-15.37,0,0,0,0,1,.09,0,60.45,60.45,0,0,1-4.52,17.5c-.06,8.27-.15,16.54-.34,24.81,2.6-8.79,5.37-17.31,6.12-26.6a.1.1,0,1,1,.19,0c-.2,10.25-2.84,20.65-6.22,30.29a.56.56,0,0,1-.18.24c-.07,3-.16,6.05-.26,9.07a.34.34,0,0,1-.67,0q-.18-9.28-.15-18.56a83,83,0,0,1-6-25.4C68.76,286.69,68.89,286.67,68.9,286.75Z" style="fill:#263238"></path><path d="M70,282.39A53.47,53.47,0,0,1,71,289.84a.08.08,0,0,1-.15,0,53.13,53.13,0,0,1-1.26-7.43C69.59,282.23,69.91,282.2,70,282.39Z" style="fill:#263238"></path><path d="M78.91,261.76c0-.09.14-.06.15,0a19.5,19.5,0,0,1-.77,5.14c0,.14-.24.07-.21-.06C78.41,265.16,78.62,263.46,78.91,261.76Z" style="fill:#263238"></path><path d="M69.6,333.28s.62-29.46-7.83-44.1S39.3,267.07,39.3,267.07,45,319,69.6,333.28Z" style="fill:#CFD8DC"></path><path d="M54.2,308.09a109.69,109.69,0,0,0,11.43,14.49q-2.52-9-5.85-17.76c-4.73-4.16-9.43-8.46-12.34-14.15a.08.08,0,0,1,.14-.08c3.12,5,7.3,9.06,11.7,12.94a227.43,227.43,0,0,0-11.76-25.62.19.19,0,0,1,.32-.19,140.34,140.34,0,0,1,7.38,13.45c-.8-3.15-1.43-6.37-2.24-9.5a.07.07,0,0,1,.13,0,53.37,53.37,0,0,1,3.47,12.5A149,149,0,0,1,64,314.29c-.21-4.42-.49-8.81-.95-13.22,0-.08.14-.1.15,0a71.1,71.1,0,0,1,1.28,14.84c1.22,4.39,2.24,8.84,3.07,13.31,0,.12-.16.18-.19.05q-.69-2.81-1.46-5.59a.18.18,0,0,1-.1,0c-4.53-4.54-8.84-9.72-11.67-15.51A0,0,0,0,1,54.2,308.09Z" style="fill:#263238"></path><path d="M44.4,284.11c1,1,1.81,2.09,2.72,3.14a24.15,24.15,0,0,1,2.43,2.84,0,0,0,0,1-.06.07,14.23,14.23,0,0,1-2.81-2.78,22.94,22.94,0,0,1-2.41-3.16C44.22,284.14,44.34,284,44.4,284.11Z" style="fill:#263238"></path><path d="M94.71,329.69l-1.07,13.95-3.21,42.19h-28l-3.22-42.19-1.06-13.95H94.71Z" style="fill:#455a64"></path><path d="M94.71,329.69l-1.07,13.95H59.22l-1.06-13.95H94.71Z" style="fill:#37474f"></path><rect x="55.67" y="322.84" width="41.52" height="10.7" transform="translate(152.87 656.38) rotate(180)" style="fill:#455a64"></rect></g><g id="freepik--Floor--inject-2"><polygon points="38.84 385.83 91.63 385.58 144.42 385.5 250 385.33 355.58 385.5 408.37 385.58 461.16 385.83 408.37 386.07 355.58 386.16 250 386.33 144.42 386.16 91.63 386.07 38.84 385.83" style="fill:#263238"></polygon></g><g id="freepik--social-media--inject-2"><path d="M316.72,103.15a24.89,24.89,0,0,1-5,12.52,28.83,28.83,0,0,1-2.24,2.57,27.46,27.46,0,0,1-2.61,2.21,24.93,24.93,0,0,1-12.6,4.9,24.7,24.7,0,0,1-3.44.07,21.8,21.8,0,0,1-3.41-.36,24.93,24.93,0,0,1-12.22-6l.29.09L263.17,121l-.9.13.46-.79,6.14-10.7,0,.42a25,25,0,0,1,1.52-22,25.28,25.28,0,0,1,7.74-8.23,25,25,0,0,1,10.54-4,24.64,24.64,0,0,1,20.69,6.87A24.87,24.87,0,0,1,316.72,103.15Z" style="fill:#455a64"></path><path d="M291.45,93.46c-.05,1.59,0,3.21,0,4.94h6.23c-.26,2-.49,3.95-.79,5.83,0,.19-.5.42-.76.43-1.5,0-3,0-4.64,0v20.78a24.48,24.48,0,0,1-6.61-1V104.72h-5.45V98.45h5.34c0-.47.06-.85.06-1.21,0-1.65,0-3.31.13-4.94a6.88,6.88,0,0,1,6.1-6.61,51.42,51.42,0,0,1,6.81-.06v5.7c-.81,0-1.65,0-2.46,0a10.62,10.62,0,0,0-2.19.15A2.06,2.06,0,0,0,291.45,93.46Z" style="fill:#fff"></path><path d="M304.11,168.75a19.8,19.8,0,0,1-10.7.91,21.6,21.6,0,0,1-2.63-.68,23.07,23.07,0,0,1-2.51-1.07,19.26,19.26,0,0,1-4.48-3.07,19.77,19.77,0,0,1-3.51-4.17,18,18,0,0,1-1.26-2.43,16.44,16.44,0,0,1-1-2.56,19.75,19.75,0,0,1-.05-10.86l0,.24-5.76-8.12-.41-.59.72,0,9.82.56-.31.13a19.91,19.91,0,0,1,16.24-6.76A20.18,20.18,0,0,1,307,132.9a20,20,0,0,1,9.82,14.43,20.22,20.22,0,0,1-.77,8.88A19.81,19.81,0,0,1,304.11,168.75Z" style="fill:#CFD8DC"></path><path d="M285.79,159.24a10.53,10.53,0,0,0,6.82-2.1c-2.82-.86-3.94-1.72-4.35-3.32l1.89-.09a5.2,5.2,0,0,1-3.71-4.8l1.95.52c-2-2.57-2.46-4.56-1.24-6.42a14.1,14.1,0,0,0,10,5c0-.32,0-.56-.05-.8a4.6,4.6,0,0,1,2.68-4.63,4.66,4.66,0,0,1,5.31.65,1,1,0,0,0,1.08.22l2.36-.87a4.87,4.87,0,0,1-1.86,2.38.78.78,0,0,1,.05.14l2.34-.6.1.09c-.61.61-1.19,1.24-1.83,1.81a1.28,1.28,0,0,0-.51,1.05,13.68,13.68,0,0,1-12.45,13.71,13.85,13.85,0,0,1-8.12-1.66C286.1,159.44,286,159.34,285.79,159.24Z" style="fill:#fff"></path><circle cx="230.85" cy="139.99" r="12.01" style="fill:#37474f"></circle><path d="M237.55,141.52c-2,4-6.7,6.37-6.7,6.37s-4.72-2.37-6.7-6.37c-1.65-3.34-.6-6.94,2-7.73,3.73-1.13,4.69,5.38,4.69,5.38s1-6.51,4.7-5.38C238.15,134.58,239.2,138.18,237.55,141.52Z" style="fill:#fff"></path><circle cx="322.42" cy="71.25" r="11.88" transform="translate(199.3 377.64) rotate(-80.57)" style="fill:#455a64"></circle><g id="freepik--xsrjP0--inject-2"><path d="M320.61,76.53c-.35-.23-.66-.55-1.13-.5-.19,0-.15-.13-.15-.23,0-1.79,0-3.57,0-5.35,0-.13,0-.24.15-.31,1.36-.69,1.94-2,2.77-3.2a5.34,5.34,0,0,0,1-4c-.06-.4.13-.58.49-.66a.91.91,0,0,1,1,.31,7.18,7.18,0,0,1,.78,2.34,8.54,8.54,0,0,1-.24,2c-.06.49-.17,1-.26,1.47.12.09.25,0,.38,0h4.52c.64,0,1,.18,1,.6a1.21,1.21,0,0,1-.65,1.31c-.12.06-.32,0-.33.18s.19.16.3.23c.54.38.44,1.15-.18,1.6-.16.1-.45.06-.46.28s.28.17.4.3a1,1,0,0,1-.43,1.57c-.08,0-.19,0-.26.11s-.15.1,0,.21a.88.88,0,0,1,0,1.58l-.2.15a1.28,1.28,0,0,1-.79.17l-7.08,0A.88.88,0,0,1,320.61,76.53Z" style="fill:#fff;fill-rule:evenodd"></path><path d="M313.89,73.4c0-1.13,0-2.26,0-3.39,0-.23,0-.35.31-.35,1.38,0,2.76,0,4.14,0,.27,0,.31.09.31.33q0,3.42,0,6.84c0,.29-.08.37-.37.37-1.34,0-2.68,0-4,0-.33,0-.38-.11-.38-.4C313.91,75.67,313.89,74.54,313.89,73.4Z" style="fill:#fff;fill-rule:evenodd"></path></g><path d="M237.16,164a6,6,0,1,1-5.95-6A6,6,0,0,1,237.16,164Z" style="fill:#CFD8DC"></path><g id="freepik--K0pxJE--inject-2"><path d="M231.11,159.89a2.45,2.45,0,0,1,1.53.43,2.19,2.19,0,0,1,.79,1.1,2.64,2.64,0,0,1,.08.49q0,.36,0,.72c0,.21,0,.41,0,.61s0,.09.08.13a.53.53,0,0,0,.35,0l.18-.07a.4.4,0,0,1,.45.09.2.2,0,0,1,0,.28,1,1,0,0,1-.35.21c-.1,0-.2.06-.3.11a.77.77,0,0,0-.18.1.38.38,0,0,0-.14.45,2,2,0,0,0,.29.57,2.73,2.73,0,0,0,.84.85,2,2,0,0,0,.72.28c.08,0,.11.07.08.15a.33.33,0,0,1-.17.16,1.77,1.77,0,0,1-.56.19l-.32.07a.14.14,0,0,0-.12.09c0,.12,0,.24-.09.35s-.06.15-.19.13-.3,0-.46-.06a1.41,1.41,0,0,0-1.05.29,5.25,5.25,0,0,1-.49.33,1.71,1.71,0,0,1-1.85-.11c-.17-.12-.32-.24-.49-.34a1.31,1.31,0,0,0-.55-.17,2.62,2.62,0,0,0-.74.07h0c-.17,0-.19,0-.23-.15s0-.2-.07-.3a.17.17,0,0,0-.15-.14,2.78,2.78,0,0,1-.81-.22.42.42,0,0,1-.14-.09.27.27,0,0,1-.09-.12.09.09,0,0,1,.08-.13,2.22,2.22,0,0,0,1.41-.91,3,3,0,0,0,.42-.69.61.61,0,0,0,.05-.18.38.38,0,0,0-.19-.39,1,1,0,0,0-.32-.15,1.47,1.47,0,0,1-.4-.19.6.6,0,0,1-.08-.08.19.19,0,0,1,0-.29.36.36,0,0,1,.41-.05.79.79,0,0,0,.38.09.42.42,0,0,0,.21-.06.06.06,0,0,0,0-.06c0-.28,0-.55,0-.83a4.28,4.28,0,0,1,0-.62,1.51,1.51,0,0,1,.09-.47,2.17,2.17,0,0,1,1.33-1.33A2.53,2.53,0,0,1,231.11,159.89Z" style="fill:#fff"></path></g><circle cx="316.98" cy="127.3" r="5.95" style="fill:#263238"></circle><path d="M319,125.05a2,2,0,1,1-2-2A2,2,0,0,1,319,125.05Z" style="fill:#fff"></path><path d="M320.41,130.51v.73h-6.86v-.73a3.43,3.43,0,0,1,6.86,0Z" style="fill:#fff"></path><path d="M208.88,107.43a18.39,18.39,0,0,0,30.73,11.63l9.2,1.35-4.6-8a18.4,18.4,0,1,0-35.33-5Z" style="fill:#455a64"></path><path d="M214.39,92.24a18.58,18.58,0,0,1,30.15,20.35l0-.31,4.57,8,.34.59-.67-.11-9.19-1.41.22-.07a18.6,18.6,0,0,1-9.1,4.5,21.11,21.11,0,0,1-5.1.21,18.25,18.25,0,0,1-5-1.18,18.06,18.06,0,0,1-4.44-2.47,20,20,0,0,1-1.94-1.64,21.87,21.87,0,0,1-1.67-1.92,18.49,18.49,0,0,1,1.8-24.51Z" style="fill:#CFD8DC"></path><path d="M237.7,99.69a4.42,4.42,0,0,0-4.64-4.75c-3.92,0-7.85,0-11.78,0a4.42,4.42,0,0,0-4.62,4.65c0,2,0,3.92,0,5.88s0,3.84,0,5.76a4.48,4.48,0,0,0,4.71,4.82c3.88,0,7.77,0,11.65,0a4.45,4.45,0,0,0,4.68-4.73C237.72,107.45,237.72,103.56,237.7,99.69Zm-1.88,11.67a2.55,2.55,0,0,1-2.8,2.82c-3.89,0-7.77,0-11.66,0a2.55,2.55,0,0,1-2.81-2.81q0-5.88,0-11.76a2.57,2.57,0,0,1,2.8-2.84c3.89,0,7.77,0,11.66,0a2.57,2.57,0,0,1,2.81,2.83c0,2,0,3.92,0,5.88S235.85,109.4,235.82,111.36Z" style="fill:#fff"></path><path d="M227.19,100a5.5,5.5,0,1,0,5.47,5.58A5.48,5.48,0,0,0,227.19,100Zm-.06,9.16a3.72,3.72,0,0,1-3.61-3.62,3.67,3.67,0,0,1,7.33,0A3.72,3.72,0,0,1,227.13,109.14Z" style="fill:#fff"></path><path d="M234.33,99.85A1.13,1.13,0,0,1,233,101a1.15,1.15,0,0,1-1.2-1.37c.06-.77.56-1.12,1.33-1.17A1.24,1.24,0,0,1,234.33,99.85Z" style="fill:#fff"></path><circle cx="257.01" cy="68.63" r="11.88" transform="translate(26.75 201.84) rotate(-45)" style="fill:#CFD8DC"></circle><g style="opacity:0.5"><path d="M262.51,65.35a2.41,2.41,0,1,1-2.41-2.41A2.41,2.41,0,0,1,262.51,65.35Z"></path><path d="M264.26,72v.88h-8.33V72a4.17,4.17,0,0,1,8.33,0Z"></path></g><path d="M256.34,66.8a2.41,2.41,0,1,1-2.41-2.41A2.41,2.41,0,0,1,256.34,66.8Z" style="fill:#fff"></path><path d="M258.09,73.44v.89h-8.33v-.89a4.17,4.17,0,0,1,8.33,0Z" style="fill:#fff"></path><path d="M215.93,134.33a6,6,0,1,1-6-6A6,6,0,0,1,215.93,134.33Z" style="fill:#455a64"></path><path d="M207.68,136.32h-.49a.55.55,0,0,1-.55-.55.55.55,0,0,1,.55-.55h.68l.31-1.83h-.61a.55.55,0,0,1-.54-.55.56.56,0,0,1,.54-.55h.8l.21-1.25a.54.54,0,0,1,.55-.45.56.56,0,0,1,.55.64l-.19,1.06h1.65l.21-1.25a.54.54,0,0,1,.56-.45.55.55,0,0,1,.54.64l-.18,1.06h.49a.55.55,0,0,1,.54.55.55.55,0,0,1-.54.55h-.68l-.31,1.83h.6a.54.54,0,0,1,.54.55.55.55,0,0,1-.54.55h-.79l-.23,1.29a.54.54,0,0,1-.54.46.56.56,0,0,1-.55-.65l.2-1.1H208.8l-.22,1.29a.55.55,0,1,1-1.09-.19Zm3-1.1.32-1.83h-1.65l-.32,1.83Z" style="fill:#fff"></path><circle cx="257.69" cy="97.64" r="5.95" transform="translate(54.46 283.75) rotate(-63.23)" style="fill:#37474f"></circle><path d="M257.23,93.73a3.93,3.93,0,1,0,.93,7.81,3.25,3.25,0,0,0,.93-.23.32.32,0,0,0,.21-.44.28.28,0,0,0-.14-.18.35.35,0,0,0-.3,0,3,3,0,0,1-.78.17,3.23,3.23,0,1,1-.76-6.42,3.22,3.22,0,0,1,3.58,2.82,2.92,2.92,0,0,1-.18,1.51,1.06,1.06,0,0,1-.51.59h-.07a.24.24,0,0,1-.14,0,.78.78,0,0,1-.09-.21c-.09-.38-.19-1.58-.19-1.59V97.4a2,2,0,1,0-4,.47A2.12,2.12,0,0,0,258,99.78a1.94,1.94,0,0,0,1.27-.7l0,.18a1,1,0,0,0,.25.54.83.83,0,0,0,.73.25,1.06,1.06,0,0,0,.23,0,1.86,1.86,0,0,0,.92-1v0a3.86,3.86,0,0,0,.2-1.83A3.93,3.93,0,0,0,257.23,93.73Zm.63,5.32a1.43,1.43,0,0,1-.33-2.84A1.4,1.4,0,0,1,259,97.48,1.38,1.38,0,0,1,257.86,99.05Z" style="fill:#fff"></path></g><g id="freepik--Character--inject-2"><rect x="109.15" y="254.08" width="281.7" height="151.28" style="fill:#CFD8DC"></rect><polygon points="211.42 405.36 288.58 405.36 250 447.05 211.42 405.36" style="fill:#CFD8DC"></polygon><path d="M290.52,343C272.06,367.46,250,378.19,250,378.19S228,367.46,209.5,343c-14.26-18.87-13.55-48.42,6.85-54.81,22.56-7.07,33.65,26.89,33.65,26.89s11.25-34.18,33.67-26.89C304,294.83,304.78,324.16,290.52,343Z" style="fill:#fff"></path><path d="M400.57,257.88c-2.18.84-65.49,2-68,.58-.27-.16-.2-3-1.13-10.19,0-.34-1.49-1.68-3.74-3.57-8.47-7.1-28.37-22.06-28.37-22.06L331,195.19l30.62,30.09,8,7.83s25.87,14,28.43,15.81S402.75,257,400.57,257.88Z" style="fill:#eb9481"></path><path d="M400.57,257.88c-2.18.84-65.5,2-68,.58-.27-.16-.19-2.95-1.13-10.19,0-.34-1.49-1.68-3.75-3.58-2.94-2.46-4.34-3.59-8.72-7l40.17-14.77,2.41,2.37,8,7.82s25.87,14,28.43,15.81S402.75,257,400.57,257.88Z" style="fill:#ebebeb"></path><path d="M404.94,258.76c-2.2.76-69.66,1.5-72.09,0-.57-.35-1.1-4.26-1.52-9.63-.05-.68-6.88-6.14-7.82-7.15l41.34-13.92,5.22,4.91s30.42,14.16,32.91,16.08S407.13,258,404.94,258.76Z" style="fill:#263238"></path><path d="M404,256.24c-10.6-.14-57.61.31-68.1,1-.08,0-.08.07,0,.07,10.5.36,57.51-.43,68.1-.88C404.22,256.4,404.22,256.24,404,256.24Z" style="fill:#CFD8DC"></path><path d="M373.44,233.42c-4.17-.73-9.27,0-12.42,3-.12.12.05.29.18.25a58.74,58.74,0,0,1,12.23-2.7A.26.26,0,0,0,373.44,233.42Z" style="fill:#CFD8DC"></path><path d="M376.47,235.19c-4.17-.73-9.27,0-12.42,3-.12.12.05.29.18.25a58.11,58.11,0,0,1,12.23-2.7A.27.27,0,0,0,376.47,235.19Z" style="fill:#CFD8DC"></path><path d="M379.51,237c-4.18-.73-9.27,0-12.43,3-.12.12.05.29.18.25a58.06,58.06,0,0,1,12.24-2.7A.27.27,0,0,0,379.51,237Z" style="fill:#CFD8DC"></path><path d="M382.54,238.75c-4.18-.73-9.27,0-12.43,3-.12.12.05.29.18.24a58.67,58.67,0,0,1,12.24-2.69A.27.27,0,0,0,382.54,238.75Z" style="fill:#CFD8DC"></path><path d="M381,223.68c-1.66-2.23-4.7-1.18-6.42.3a22.11,22.11,0,0,0-6.31,9.63c0,.08,0,.13.1.15a.52.52,0,0,0,.66.51c3.42-1.32,7.25-2.3,10.17-4.63C380.94,228.28,382.61,225.8,381,223.68Zm-7.19,7.53c-1.67.69-3.36,1.29-5,2a64.78,64.78,0,0,1,3.81-5.54,21.66,21.66,0,0,1,2.18-2.41c1.22-1.15,6.11-3.61,5.43,1C379.88,228.8,375.84,230.39,373.84,231.21Z" style="fill:#CFD8DC"></path><path d="M357.69,232.64c3.45,1.43,7.4,1.31,11.06,1.62a.52.52,0,0,0,.49-.68.11.11,0,0,0,.05-.17,22.24,22.24,0,0,0-8.73-7.5c-2.07-.94-5.28-1.11-6.26,1.51S355.67,231.81,357.69,232.64Zm-1.92-2.95c-1.93-4.21,3.44-3.21,4.94-2.45a25.46,25.46,0,0,1,2.77,1.71c1.85,1.29,3.49,2.81,5.2,4.27-1.79-.27-3.59-.37-5.38-.57C361.16,232.42,356.83,232,355.77,229.69Z" style="fill:#CFD8DC"></path><path d="M362,223.6,323,243.84s-40.69-36.83-44.42-37.1-58.47,36.87-86,37c-28.55.12-30-29.78-30-29.78l41.64-9.56c30-14.8,61.27-41.36,81.72-38.88C308.1,168.19,362,223.6,362,223.6Z" style="fill:#37474f"></path><path d="M352.47,218.45c-6.59,3.26-4.74,2.24-11.3,5.56-3.21,1.63-19.36,9.78-22.1,11.8-.06,0,0,.15.07.13,3.22-1.08,19.19-9.58,22.37-11.27,6.5-3.44,4.6-2.52,11.06-6A.1.1,0,1,0,352.47,218.45Z" style="fill:#263238"></path><path d="M316,234.51c-7.63-6.73-32.65-28.65-33.67-29.46a14.07,14.07,0,0,0-2.6-2,2.74,2.74,0,0,0-2.41.2c-1.16.54-2.29,1.13-3.44,1.69l-6.77,3.3c-8.75,4.28-17.45,8.66-26.27,12.79-8.48,4-14.53,7.71-23.39,10.76a132.81,132.81,0,0,1-27.16,6.48c-1.15.14-2.29.26-3.43.37a.07.07,0,1,0,0,.13,109.75,109.75,0,0,0,26.74-5c8.77-2.69,14.72-6.2,23.06-10,8.63-4,17.14-8.23,25.66-12.46,4.49-2.23,9-4.48,13.48-6.69,1-.5,2.48-1.59,3.65-1.05a6.45,6.45,0,0,1,1.34,1l1.5,1.25c1.94,1.61,32.6,28,33.61,28.78C316,234.68,316.12,234.58,316,234.51Z" style="fill:#263238"></path><path d="M162.45,213.94s-4.67,27,8.83,37.61S283.7,260.88,298.71,256s15.48-29.07-.93-34.68c-15.6-5.34-82-7.94-83.63-8.59-.41-.16,5.88-3.94,5.86-4.17L204.9,204Z" style="fill:#37474f"></path><path d="M182.94,213.26c0-.12-.19-.08-.19,0a13.35,13.35,0,0,1-3.13,8.58c-2.29,2.65-5.68,4.14-8.75,5.69-.3.15-.08.61.23.52a26.81,26.81,0,0,0,5.42-2.34,13,13,0,0,0,4.08-3.39A11.61,11.61,0,0,0,182.94,213.26Z" style="fill:#263238"></path><path d="M213.06,209.91c-.69-.87-1.43-1.71-2.15-2.56-1.69-2-3.39-4-5.16-6-.17-.18-.5.08-.34.28,1.19,1.56,2.45,3.07,3.7,4.59.63.78,1.27,1.56,1.92,2.33a15,15,0,0,1,1.79,2.27,1.14,1.14,0,0,1-1,1.7,3.08,3.08,0,0,1-2.16-.79,28.33,28.33,0,0,1-3.66-3.92c-.72-.8-1.43-1.6-2.15-2.39s-1.59-1.64-2.36-2.48c0-.05-.14,0-.1.08.67.92,1.29,1.88,2,2.8s1.35,1.83,2.05,2.74,1.33,1.69,2,2.51a8.44,8.44,0,0,0,2.06,1.85c1.28.75,3.51.92,4.2-.74A2.38,2.38,0,0,0,213.06,209.91Z" style="fill:#263238"></path><path d="M296.66,256.12c-5.17.1-10.33.4-15.5.51s-10.26.13-15.38.09q-15.45-.15-30.87-1.2c-10.38-.72-21.58-1.76-31.89-3.18-4.93-.69-9.94-1.26-14.81-2.31a23.39,23.39,0,0,1-11.69-6c-6.68-6.48-9.27-16-10.34-25.11-.14-1.22-.26-2.44-.36-3.67a.06.06,0,1,0-.12,0c.6,9.33,2.05,19.06,7.92,26.56a23.37,23.37,0,0,0,9.56,7.42c4.62,1.85,9.74,2.28,14.62,2.95,10.35,1.4,21.59,2.48,32,3.29s21,1.32,31.49,1.48,21,0,31.52-.51c1.28-.07,2.56-.14,3.84-.25C296.73,256.23,296.73,256.12,296.66,256.12Z" style="fill:#263238"></path><path d="M264.08,216.43c-3.26-.48-6.5-1-9.77-1.29s-6.61-.64-9.92-.92c-6.55-.55-13.11-1.05-19.67-1.36-3.73-.17-7.45-.19-11.18-.14-.12,0-.11.17,0,.18,6.56.59,13.13,1,19.7,1.44s13.1,1,19.65,1.64c3.71.35,7.42.63,11.13.93C264.3,216.93,264.35,216.47,264.08,216.43Z" style="fill:#263238"></path><path d="M220.78,208.26a50.87,50.87,0,0,0-7.53,4,60.44,60.44,0,0,0-7,4.88c-.06.05,0,.13.08.1,2.55-1.18,5-2.66,7.44-4.08a69.25,69.25,0,0,0,7.14-4.58C221.09,208.49,221,208.17,220.78,208.26Z" style="fill:#263238"></path><path d="M249.14,123.4,239.69,150a1,1,0,0,0,.76,1.54l14.07,1.33a2.3,2.3,0,0,0,2.09-1.27L266.06,125c.37-.78,0-1.47-.76-1.54l-14.07-1.33A2.28,2.28,0,0,0,249.14,123.4Z" style="fill:#37474f"></path><path d="M250.81,123.55l-9.45,26.62a1,1,0,0,0,.76,1.53L256.19,153a2.29,2.29,0,0,0,2.09-1.26l9.45-26.62c.37-.78,0-1.46-.76-1.54l-14.07-1.33A2.29,2.29,0,0,0,250.81,123.55Z" style="fill:#455a64"></path><path d="M254.55,125.16a1.19,1.19,0,0,1-1.33,1,1.2,1.2,0,1,1,.28-2.38A1.19,1.19,0,0,1,254.55,125.16Z" style="fill:#263238"></path><path d="M198.72,165.68c8.28,16.9,26.6,38.72,34,38.7,3.54,0,9.86.72,14.43-3.42,10-9,18.82-25.44,21-34.54.81-3.41-17.61-12-20-9.12C242.41,164,235.88,177,234.85,177,231,176.72,216,164.59,205.44,156,192.66,145.66,195.41,159,198.72,165.68Z" style="fill:#eb9481"></path><path d="M269.89,150.28c-1.05-7.15-2.42-8.83-.09-15.33,1.52-4.27-.55-7.08-4-3.88-5.67,5.22-6.26,14.73-5.52,18.09Z" style="fill:#eb9481"></path><path d="M266.51,170.89s4.12-9.39,3.76-17.13c-.25-5.34-2.09-16.92-16.22-24.39-3.35-1.77-9.38-1.92-5,3,3.14,3.47,6.18,4.72,7.64,7.07,0,0-7.69.72-9.34,4.15a71,71,0,0,0-3.66,9.25,14.46,14.46,0,0,0,1.68.84s-1.44,3.26.56,8.3Z" style="fill:#eb9481"></path><path d="M269.21,148.7c-1.94-2-6.12-6.25-10.75-8.52-5.14-2.51-15.72-6-17.54-2.16-1.33,2.8,2.59,4.47,2.59,4.47s-4.67-.51-5.32,2.28c-.6,2.54,2.51,3.66,2.51,3.66s-2.88.18-3,2.74c-.12,3.07,5.95,2.19,8.52,5.42C246.82,157.31,269.21,148.7,269.21,148.7Z" style="fill:#eb9481"></path><path d="M256.71,146.06a22.8,22.8,0,0,0-13.1-3.64c-.12,0-.17.1-.07.12a56.14,56.14,0,0,1,13.14,3.57S256.73,146.07,256.71,146.06Z" style="fill:#263238"></path><path d="M254,151.17a25.65,25.65,0,0,0-13.29-2.84c-.12,0-.17.11-.06.12A60,60,0,0,1,254,151.22S254,151.19,254,151.17Z" style="fill:#263238"></path><path d="M204.08,178.55l21-8.37s-18.89-16.24-25.79-19.45c-7.77-3.61-7.92,1.15-5.19,8.83S204.08,178.55,204.08,178.55Z" style="fill:#CFD8DC"></path><path d="M204.08,178.55l21-8.37s-18.89-16.24-25.79-19.45c-7.77-3.61-7.92,1.15-5.19,8.83S204.08,178.55,204.08,178.55Z" style="fill:#CFD8DC"></path><path d="M220.69,167.62c-.78.18-7.38,2.68-8.8,3.26s-7.27,2.87-8.69,3.58a.06.06,0,0,0,0,.11c1.52-.44,7.42-2.73,8.88-3.29s7.94-3.18,8.61-3.56A.05.05,0,0,0,220.69,167.62Z" style="fill:#263238"></path><path d="M212.2,175.32l-8.12,3.22s-7.2-11.31-9.93-19c-2-5.61-2.45-9.67.48-10Z" style="fill:#263238"></path><path d="M218.61,207.78,161.22,219c-.09-1.19,3.84-36.79,8.63-50.31,6.14-17.32,10.12-19.11,12.48-20.27,3-1.49,8.7-1.57,10.11-1.09,1.59.54,7.35,8.39,9.77,14.36C207.07,173.67,219.3,206.94,218.61,207.78Z" style="fill:#CFD8DC"></path><path d="M194.11,148.77,178,151.9a17.63,17.63,0,0,1,1.22-1.36l14-2.7A11.64,11.64,0,0,1,194.11,148.77Zm1.58,1.89-19.48,3.77c-.24.38-.49.8-.74,1.25l20.94-4.05C196.16,151.29,195.93,151,195.69,150.66Zm2.07,2.89-23.58,4.56-.58,1.23,24.79-4.8C198.19,154.2,198,153.88,197.76,153.55Zm1.83,2.95-27.05,5.24c-.17.39-.34.8-.5,1.22l28.12-5.45C200,157.18,199.79,156.83,199.59,156.5Zm1.63,3-30.13,5.83c-.15.39-.29.78-.45,1.19l31.06-6C201.55,160.18,201.39,159.83,201.22,159.5Zm1.34,3-32.77,6.35c-.14.38-.27.77-.4,1.19L203,163.56C202.82,163.21,202.68,162.86,202.56,162.53Zm1.21,3.07-35.07,6.79c-.1.39-.22.78-.32,1.18l35.79-6.93C204,166.29,203.9,165.94,203.77,165.6Zm1.19,3.07-37.14,7.2c-.1.37-.19.76-.28,1.16l37.81-7.33C205.21,169.36,205.09,169,205,168.67Zm1.17,3.08L167,179.32l-.24,1.16,39.74-7.69C206.39,172.43,206.27,172.09,206.13,171.75Zm1.17,3.08-41,7.93-.22,1.16,41.58-8C207.56,175.53,207.42,175.17,207.3,174.83Zm1.15,3.08-42.76,8.28c-.07.37-.13.76-.19,1.15l43.34-8.4C208.7,178.6,208.58,178.25,208.45,177.91Zm1.14,3.07-44.49,8.63c-.07.38-.13.76-.2,1.14L210,182C209.85,181.68,209.72,181.34,209.59,181Zm1.14,3.09-46.19,9c-.06.39-.13.77-.19,1.15l46.76-9.06C211,184.75,210.85,184.41,210.73,184.07Zm1.13,3.08L164,196.42c-.06.37-.12.76-.17,1.14l48.38-9.37C212.11,187.85,212,187.49,211.86,187.15Zm1.1,3.09-49.45,9.58c0,.39-.11.76-.16,1.14l50-9.68C213.21,190.94,213.09,190.59,213,190.24Zm1.11,3.09-51,9.89c0,.38-.11.76-.16,1.13l51.55-10C214.32,194,214.19,193.68,214.07,193.33Zm1.08,3.09L162.59,206.6q-.08.59-.15,1.14l53.07-10.28C215.4,197.11,215.27,196.77,215.15,196.42Zm1.07,3.1L162.16,210c0,.38-.09.77-.13,1.13l54.55-10.56C216.46,200.23,216.35,199.87,216.22,199.52Zm1,3.1-55.48,10.75c0,.4-.1.77-.13,1.13l56-10.84Zm1,3.12-56.81,11c0,.44-.07.83-.1,1.14l57.19-11.08C218.42,206.5,218.33,206.14,218.21,205.74Z" style="fill:#030402;opacity:0.1"></path><path d="M177.62,152.39C158,172.82,129.39,224.55,125.85,232c-2.4,5,23.92,18.3,25,14.64,1.43-4.69,24.36-62.58,30.46-84.42C184.7,150.14,181.68,148.17,177.62,152.39Z" style="fill:#eb9481"></path><path d="M152.13,243.15c-.92,2.51-4,13.16-6.23,14.49s-13.66,1-19.44,1-6.92-1.61-6.82-3.6,12.22-2.37,12.22-2.37-16.2,4.64-20.28,5.4-13.46,3.13-14.82-.25c-.61-1.52,2-3.07,2-3.07s-3.94,1.16-4.57-.8c-.71-2.23,2.42-3.46,2.42-3.46s-2.46.49-2.52-1.32c-.13-4.06,15.28-6.06,15.28-6.06s-11.8,5.75-12.18,2.43C96.63,241,120.81,236,123.33,234a17.18,17.18,0,0,0,4-5Z" style="fill:#eb9481"></path><path d="M119.72,256.09a1.77,1.77,0,0,1,.55-1.55,5,5,0,0,1,1.41-.91,18.57,18.57,0,0,1,3.31-1.08c2.28-.58,4.62-1,6.94-1.59a28.25,28.25,0,0,0-7.14.81,12.69,12.69,0,0,0-3.4,1.3,4.65,4.65,0,0,0-1.43,1.22A1.89,1.89,0,0,0,119.72,256.09Z" style="fill:#263238"></path><path d="M98.72,254.79c1.66-.4,3.31-.87,5-1.35s3.27-1,4.9-1.47l4.88-1.53q2.44-.76,4.9-1.5a37.76,37.76,0,0,0-5.06.9c-1.67.38-3.32.86-5,1.36s-3.26,1-4.86,1.65S100.27,254.07,98.72,254.79Z" style="fill:#263238"></path><path d="M114.44,244.89a32.13,32.13,0,0,0-4.68.65,45,45,0,0,0-4.57,1.17,41.42,41.42,0,0,0-4.43,1.66,33.17,33.17,0,0,0-4.19,2.16c1.49-.52,2.94-1.09,4.42-1.58s3-1,4.44-1.46,3-.91,4.48-1.35S112.92,245.3,114.44,244.89Z" style="fill:#263238"></path><path d="M112.05,241a29.2,29.2,0,0,0-7.44,1.57,28.85,28.85,0,0,0-6.84,3.32c2.39-.85,4.72-1.76,7.1-2.55S109.64,241.8,112.05,241Z" style="fill:#263238"></path><path d="M157.93,173.56l22.08.78a167.31,167.31,0,0,0,3.88-16.84c1.11-8.13-1.65-10.45-9.24-3.85C169.56,158.07,157.93,173.56,157.93,173.56Z" style="fill:#CFD8DC"></path><path d="M177.32,174.25a26.23,26.23,0,0,1,2.67,0c.32-1.27.63-2.54,1-3.8q.25-.94.54-1.89c.21-.68.41-1.48.6-2.09,0-.09.15-.07.13,0-.16.82-.31,1.42-.45,2.13s-.27,1.26-.43,1.88c-.33,1.32-.63,2.74-1,4a22.72,22.72,0,0,1-3-.24S177.28,174.25,177.32,174.25Z" style="fill:#263238"></path><path d="M160.24,171.54c3.22-.11,6.44-.17,9.66-.09,1.61,0,3.22.11,4.82.2s3.2.34,4.81.4a.07.07,0,0,1,0,.14c-1.59-.15-3.22-.08-4.82-.14s-3.22-.12-4.82-.17c-3.21-.09-6.43-.18-9.64-.2C160.14,171.68,160.16,171.55,160.24,171.54Z" style="fill:#263238"></path><path d="M193.35,159.16C190,160,184.24,155,181.92,151a69,69,0,0,1,.51-6.91c.16-2.21.3-4.68.26-6.94,0-.47,14.24,3.19,14.24,3.19a35.8,35.8,0,0,0-1.21,8.7,5.38,5.38,0,0,0,.11.93.61.61,0,0,1,0,.15C196.17,151.83,196.55,158.34,193.35,159.16Z" style="fill:#eb9481"></path><path d="M183.56,137.14c.72,3.81,3.27,13,10.84,13a9.26,9.26,0,0,0,1.45-.1.7.7,0,0,0,0-.16,6.4,6.4,0,0,1-.12-.92,36.27,36.27,0,0,1,1.22-8.72S186.65,137.65,183.56,137.14Z" style="fill:#263238"></path><path d="M180.85,132.12S175,125.78,177,119.24c1.14-3.83,6.77-5.12,6.61-5.45,0,0,9.22-8.21,14.19-4,4.7,4,5.4,16.32,5.4,16.32Z" style="fill:#263238"></path><path d="M185,112.68s7.55-6.33,11.2-6.09-1.59,3.48-1.59,3.48Z" style="fill:#263238"></path><path d="M190.18,111.55s6.69-4.21,9.56-2.55S193.38,111.56,190.18,111.55Z" style="fill:#263238"></path><path d="M183.15,114.42s3.14-5.32,5.49-6.49S190,110.78,183.15,114.42Z" style="fill:#263238"></path><path d="M183.62,114c-3.67,1.31-7.71,3.52-8,7.86-.29,3.93,2.32,7.4,5.33,9.63a.11.11,0,0,0,.14-.16c-2.67-2.45-5.27-5.25-5.14-9.14.14-4.55,4.2-6.34,7.76-8C183.78,114.13,183.73,114,183.62,114Z" style="fill:#263238"></path><path d="M197.06,106c-3.4-.32-6.61,1.72-8.66,4.3a.09.09,0,0,0,.13.11c2.48-2.5,4.91-4.09,8.52-4.32A0,0,0,0,0,197.06,106Z" style="fill:#263238"></path><path d="M195.23,109.41s0,0,0,0a7.11,7.11,0,0,1,4.9-.87s0,0,0,0A6.07,6.07,0,0,0,195.23,109.41Z" style="fill:#263238"></path><path d="M180,121.14c-1.33,5.09,1.9,19.5,5.6,22.59,5.37,4.49,13.87,4.6,17.61-1.79,3.63-6.19-.92-24.9-5-27.68C192.16,110.16,182,113.63,180,121.14Z" style="fill:#eb9481"></path><path d="M194.94,138.83c.29.17.59.44.94.39a2.7,2.7,0,0,0,1-.47s.06,0,.05,0a1.34,1.34,0,0,1-1.12.8,1.07,1.07,0,0,1-.95-.7S194.9,138.8,194.94,138.83Z" style="fill:#263238"></path><path d="M195.33,135.69a3.39,3.39,0,0,0,2.53,1,4.51,4.51,0,0,0,1.2-.21,1.14,1.14,0,0,0,.22-.07l.21-.08a.25.25,0,0,0,.15-.26h0l0-.1h0l0-.08c-.14-.75-.46-1.88-.46-1.88.3.08,1.83.41,1.73,0a50.92,50.92,0,0,0-3.47-9.74.09.09,0,0,0-.17.07c.74,3.1,2,6,2.82,9.16a5.77,5.77,0,0,0-1.67-.13c-.1,0,.66,2.15.7,2.5v0a4.67,4.67,0,0,1-3.66-.31C195.32,135.55,195.26,135.63,195.33,135.69Z" style="fill:#263238"></path><path d="M198.54,136.2a4,4,0,0,1-1.31,1.56,1.83,1.83,0,0,1-1.06.3c-.82,0-1-.74-1-1.38a4.07,4.07,0,0,1,.14-1A5.26,5.26,0,0,0,198.54,136.2Z" style="fill:#263238"></path><path d="M197.23,137.76a1.83,1.83,0,0,1-1.06.3c-.82,0-1-.74-1-1.38A1.86,1.86,0,0,1,197.23,137.76Z" style="fill:#ff98b9"></path><path d="M194.14,129.28s-.07.06-.06.1c.23,1,.33,2.11-.49,2.61,0,0,0,.07,0,0C194.65,131.68,194.51,130.16,194.14,129.28Z" style="fill:#263238"></path><path d="M193.06,128.43c-1.59.2-1.08,3.37.4,3.18S194.4,128.27,193.06,128.43Z" style="fill:#263238"></path><path d="M199.91,128.14s.08,0,.09.07c.13,1,.44,2.09,1.38,2.28a0,0,0,0,1,0,0C200.27,130.56,199.87,129.09,199.91,128.14Z" style="fill:#263238"></path><path d="M200.62,127c1.56-.37,2.19,2.77.75,3.12S199.31,127.28,200.62,127Z" style="fill:#263238"></path><path d="M191.37,127.53a13,13,0,0,0,1.21-.53,2.13,2.13,0,0,0,1.12-.78.68.68,0,0,0-.17-.81,1.67,1.67,0,0,0-1.7,0,2.48,2.48,0,0,0-1.34,1.17A.72.72,0,0,0,191.37,127.53Z" style="fill:#263238"></path><path d="M201.27,125.46a11.6,11.6,0,0,1-1.18-.19,2,2,0,0,1-1.17-.42.61.61,0,0,1,0-.75,1.51,1.51,0,0,1,1.48-.43,2.18,2.18,0,0,1,1.44.72A.65.65,0,0,1,201.27,125.46Z" style="fill:#263238"></path><path d="M182.56,132.68c.62,0,1.92-4.29,2.25-6.13s-1-4.14.8-7c1.36-2.15,8.37-1.15,10-1.27,2.58-.19,4.48-1.74,6.57,2.64,0,0-2.27-13.58-16.83-7.39C174.24,118.26,179.13,132.8,182.56,132.68Z" style="fill:#263238"></path><path d="M183.6,132.85s-3.56-4.5-5.61-3.2.81,7.95,3.37,8.73a2.54,2.54,0,0,0,3.32-1.57Z" style="fill:#eb9481"></path><path d="M178.86,131.54s-.05.05,0,.06a6.49,6.49,0,0,1,3.56,3.82,1.4,1.4,0,0,0-2.12-.25s0,.1.05.09a1.55,1.55,0,0,1,1.75.44A7.53,7.53,0,0,1,183,137c.09.15.37.05.3-.12l0,0C183.19,134.64,181.27,131.62,178.86,131.54Z" style="fill:#263238"></path></g></svg>